<svg width="220" height="23" viewBox="0 0 220 23" fill="none" xmlns="http://www.w3.org/2000/svg">
<path fill-rule="evenodd" clip-rule="evenodd" d="M19.3283 18.6537C19.3283 18.6537 19.1225 17.7953 19.8716 17.3545C19.8716 17.3545 18.8583 17.5937 19.3283 18.6537Z" fill="#1A5B35"/>
<path fill-rule="evenodd" clip-rule="evenodd" d="M19.8357 19.1915C19.8357 19.1915 19.6423 17.9465 20.5115 17.354C20.5115 17.354 19.2623 17.7032 19.8357 19.1915Z" fill="#1A5B35"/>
<path fill-rule="evenodd" clip-rule="evenodd" d="M7.02653 19.9707C7.02653 19.9707 6.67987 18.9582 8.05153 18.6882C8.05153 18.6882 6.29737 18.4632 7.02653 19.9707Z" fill="#1A5B35"/>
<path fill-rule="evenodd" clip-rule="evenodd" d="M6.55965 19.358C6.55965 19.358 6.26965 18.5088 7.41965 18.283C7.41965 18.283 5.94881 18.0938 6.55965 19.358Z" fill="#1A5B35"/>
<path fill-rule="evenodd" clip-rule="evenodd" d="M10.8781 17.1905C10.2789 15.4605 10.0214 14.023 10.0323 12.823C9.88228 12.9214 9.71311 13.0105 9.50895 13.0847C9.30561 13.158 9.06561 13.2172 8.82645 13.2472C8.72645 13.3864 8.59728 13.508 8.43978 13.6014C8.25395 13.7105 8.03061 13.7755 7.81311 13.803C7.56645 13.8355 7.31978 13.8189 7.14228 13.7672C6.71561 13.6405 6.63895 13.3772 6.56228 13.1139L6.55228 13.0755C6.52478 12.9047 6.64145 12.743 6.81311 12.7164C6.97978 12.6897 7.13728 12.8005 7.16978 12.9647C7.19645 13.0547 7.22895 13.1389 7.31811 13.1655C7.41978 13.1955 7.57228 13.2039 7.73228 13.183C7.78395 13.1764 7.83561 13.1664 7.88561 13.1539C7.87145 13.148 7.85811 13.1414 7.84478 13.1347L7.84311 13.1339C7.58228 13.0022 7.42061 12.7747 7.34978 12.5347C7.27895 12.2955 7.29811 12.0355 7.39728 11.8389L7.39811 11.8372C7.50228 11.6314 7.68395 11.498 7.88645 11.4364C8.09395 11.373 8.32895 11.3855 8.52311 11.473C8.70895 11.5572 8.85561 11.7064 8.95228 11.8914C9.04311 12.0655 9.08978 12.2739 9.08311 12.488C9.08311 12.5122 9.08145 12.5372 9.07895 12.5622C9.15478 12.5422 9.22811 12.5197 9.29645 12.4947C9.48645 12.4255 9.63478 12.3422 9.76228 12.2505C9.87145 12.1722 9.97978 12.0747 10.0881 11.9755C10.4614 9.0547 12.6523 7.77803 15.2331 7.1322C12.5964 7.59553 10.2081 8.59053 9.29728 11.0555L9.25478 11.0639C8.02895 11.303 6.80395 11.2989 5.63978 11.1655L4.97895 8.8597L5.27395 8.90637C6.12311 9.0422 7.08395 9.00887 7.83311 8.52137C7.27228 8.4772 6.71728 8.4122 6.17145 8.3297L6.04895 8.31053C5.39978 7.60637 5.26311 7.1597 5.40728 6.2097L5.49811 6.12553C5.90478 5.7522 6.32895 5.38803 6.76978 5.03803C5.87561 5.0522 5.05978 5.5622 4.43145 6.14887L4.25145 6.3172L3.58145 3.97887C4.44645 3.25387 5.42395 2.6022 6.52728 2.13553C7.72228 1.6297 8.92311 1.40053 10.1806 1.36053C11.0214 1.33387 11.8431 1.3922 12.6523 1.47303L12.7956 1.4872L13.1931 1.4047C14.0006 1.12637 14.8248 0.886367 15.6606 0.6872C16.1848 0.5622 16.7081 0.455534 17.2306 0.3647L17.2064 0.3697C16.3689 0.498867 16.1648 2.4597 16.5923 4.2847C16.8939 5.5722 17.3348 6.35387 17.7823 6.67303C18.0423 6.63887 18.3023 6.60887 18.5598 6.5797C18.3556 6.60803 18.1623 6.67887 17.9823 6.7847C17.9973 6.79053 18.0123 6.79637 18.0273 6.80137L17.9439 6.80803C16.7631 7.5447 16.1581 9.84053 16.4364 12.0022C16.7881 14.7339 18.4881 17.263 20.2714 16.4755C19.4973 16.893 18.4589 17.273 16.9798 17.513C16.8939 17.903 16.7806 18.4455 16.5881 19.0314C16.3348 19.8014 15.9464 20.6472 15.5923 21.1955C15.2381 21.743 14.9189 21.9947 14.1373 21.8405C13.7139 21.7572 13.1556 21.5555 12.6314 21.3364C12.4189 21.5789 12.2081 21.798 12.0139 21.9747C11.4839 22.4597 11.0739 22.6372 10.2848 22.2547C9.49645 21.8722 8.32895 20.9305 7.74561 20.403C7.16228 19.8755 7.16311 19.7639 7.61645 19.5272C8.06978 19.2905 8.97645 18.9297 9.60478 18.6105C10.2339 18.2922 10.5848 18.0155 10.7806 17.798C10.9756 17.5805 10.9664 17.4455 10.8781 17.1905ZM18.4329 0.185438C21.4504 -0.188729 24.3954 0.00710433 27.0804 0.738771C25.1537 2.97377 22.6462 4.87044 19.7229 6.27294C18.2246 6.4846 17.3204 0.761271 18.4329 0.185438ZM4.96333 6.55801C3.0825 6.50551 2.5925 7.46301 0 9.1755C2.83833 8.85634 3.91 9.16967 5.43917 8.14384C5.02083 7.63134 4.89833 7.22467 4.96333 6.55801ZM34.4475 8.30982C34.4483 8.20732 34.4458 8.08399 34.4441 7.94482C34.4425 7.80566 34.4408 7.65149 34.5083 7.52649C34.5758 7.40232 34.7133 7.30732 34.7966 7.29399C34.8808 7.28066 34.9116 7.34899 34.9266 7.44649C34.94 7.54399 34.9375 7.67149 34.8858 7.85482C34.8341 8.03732 34.7325 8.27649 34.65 8.40566C34.5683 8.53482 34.5058 8.55566 34.475 8.52482C34.445 8.49316 34.4475 8.41232 34.4475 8.30982ZM31.0027 3.89292C31.5111 3.72709 32.1427 4.26459 32.4127 5.09292C32.6827 5.92209 32.4894 6.72876 31.9802 6.89459C31.4711 7.06042 30.8394 6.52292 30.5694 5.69376C30.2994 4.86542 30.4936 4.05876 31.0027 3.89292ZM19.5385 6.47712L18.6635 6.56795C18.9585 6.53545 19.251 6.50545 19.5385 6.47712ZM32.8626 3.2344C33.1951 3.10357 33.6384 3.61773 33.8518 4.38357C34.0643 5.1494 33.9668 5.87607 33.6334 6.0069C33.3001 6.13773 32.8576 5.62357 32.6443 4.85773C32.4318 4.0919 32.5284 3.36523 32.8626 3.2344ZM8.12496 12.5753H8.12413C8.03246 12.5295 7.9758 12.4461 7.94913 12.3578C7.92246 12.2678 7.9258 12.1786 7.9558 12.1195V12.1186C7.97663 12.0786 8.0183 12.0511 8.06746 12.0353C8.1333 12.0153 8.20663 12.0186 8.26496 12.0453C8.31913 12.0695 8.36413 12.1178 8.39663 12.1803C8.43913 12.2611 8.45996 12.362 8.45663 12.4703C8.45496 12.5261 8.44663 12.5836 8.43163 12.6403C8.30996 12.6353 8.20329 12.6153 8.12496 12.5753ZM22.566 14.7003C22.6893 14.6044 22.8127 14.5203 22.9427 14.4528C23.2068 14.3519 23.451 14.4969 23.1418 15.1078C22.8335 15.7186 21.971 16.7928 21.4043 17.3661C20.8377 17.9394 20.566 18.0111 20.5985 18.2728C20.631 18.5336 20.966 18.9844 21.5868 19.3661C22.2068 19.7478 23.111 20.0611 23.6227 20.2044C24.1343 20.3478 24.2535 20.3219 24.3468 20.1769C24.4393 20.0319 24.5068 19.7678 24.7727 19.1044C25.0218 18.4836 25.446 17.5128 25.786 16.5769C25.6177 17.2369 25.411 17.9194 25.2368 18.4919C25.4527 18.6361 25.8827 18.7503 26.441 18.7244C27.1018 18.6936 27.9418 18.4661 28.4002 18.3111C28.8577 18.1578 28.9335 18.0769 28.9293 17.9203C28.9252 17.7636 28.8393 17.5311 28.6993 16.8969C28.5602 16.2619 28.366 15.2261 28.1202 14.3003C27.9627 13.7103 27.7852 13.1653 27.6385 12.6878C27.6802 12.6744 27.7235 12.6628 27.7685 12.6528C28.3343 12.5294 29.1993 12.6636 29.9135 12.4511C30.6285 12.2386 31.1918 11.6778 31.6943 11.4686C32.1977 11.2578 32.6402 11.3986 32.9635 11.4519C33.2868 11.5053 33.4918 11.4736 33.9302 10.8536C34.2218 10.4403 34.9335 9.28444 35.311 8.23528C35.2468 8.31944 35.1968 8.33028 35.1718 8.30361C35.141 8.27361 35.1435 8.19194 35.1435 8.08944C35.1443 7.98694 35.1418 7.86278 35.1402 7.72361C35.1385 7.58528 35.1368 7.43111 35.2043 7.30611C35.2727 7.18194 35.4093 7.08694 35.4935 7.07278C35.5185 7.06861 35.5393 7.07278 35.5568 7.08278C35.5535 6.79694 35.4752 6.56444 35.291 6.41944C34.9752 6.17111 34.3927 6.24861 34.0685 6.30694C33.8268 6.35111 33.7285 6.38361 33.6118 6.32944C33.6185 6.32778 33.6243 6.32528 33.6293 6.32278C33.6577 6.30944 33.676 6.28278 33.6935 6.23944C34.0252 6.00611 34.1093 5.19944 33.8743 4.35361C33.621 3.44361 33.0943 2.83278 32.6985 2.98778C32.6843 2.99361 32.6702 3.00111 32.656 3.00861C32.6343 3.01528 32.6085 3.02528 32.5777 3.03694C32.4343 3.09278 32.1702 3.19694 31.9343 3.28361C31.6993 3.37028 31.4918 3.43861 31.2977 3.49528L31.2785 3.50111C31.241 3.46944 31.2027 3.43778 31.1627 3.40694C30.5168 2.90611 29.6318 2.62611 28.6635 2.73278C27.6952 2.83861 26.6427 3.33111 26.0002 3.75861C25.9818 3.77111 25.9635 3.78361 25.946 3.79528C25.236 3.89444 24.6527 4.12944 24.4393 4.35694C24.2068 4.60444 24.411 4.84278 24.8493 5.05278C25.1243 5.18361 25.4918 5.30361 25.8635 5.40694C26.0477 5.44611 26.2793 5.50444 26.5085 5.55111C26.8277 5.61611 27.141 5.66028 27.431 5.68611C27.721 5.71278 27.9885 5.72194 28.3693 5.70694C28.7493 5.69111 29.2435 5.65111 29.4927 5.64611C29.7418 5.64111 29.7468 5.67111 29.8127 5.80444C29.8785 5.93694 30.0052 6.17194 30.0685 6.28944C30.1318 6.40694 30.1318 6.40694 30.0952 6.42528C30.0585 6.44278 29.9843 6.47861 29.6377 6.48861C29.291 6.49861 28.6718 6.48278 28.0135 6.39778C27.3552 6.31194 26.6577 6.15694 26.1285 6.01361C25.5993 5.87028 25.2368 5.73778 24.931 5.63278C24.6927 5.55194 24.4877 5.48611 24.3635 5.42194C23.7777 5.92028 22.611 6.13944 21.186 6.30444L21.2093 6.30194C18.5593 6.68361 18.911 16.4161 22.5668 14.6994L22.566 14.7003Z" fill="#1A5B35"/>
<path fill-rule="evenodd" clip-rule="evenodd" d="M108.397 7.38589V4.42172H101.327V17.3467H104.844V12.3309H107.969V9.43839H104.844V7.38589H108.397ZM117.5 16.8649V11.2057C117.5 8.56405 116.214 7.49239 113.411 7.49239C111.805 7.49239 110.269 7.86739 109.377 8.20572L110.198 10.4924C110.93 10.2057 112.038 9.91989 112.984 9.91989C113.858 9.91989 114.251 10.2416 114.251 10.7591V11.0099C111.359 11.1874 108.859 11.8307 108.859 14.3124C108.859 16.4366 110.412 17.5791 113.59 17.5791C115.214 17.5791 116.749 17.2399 117.5 16.8649ZM114.252 15.1317C114.109 15.1851 113.787 15.2034 113.484 15.2034C112.663 15.2034 112.074 14.8826 112.074 14.2217C112.074 13.3826 112.859 13.1859 114.252 13.1326V15.1317ZM125.143 7.61739C124.786 7.54572 124.233 7.49239 123.59 7.49239C121.769 7.49239 120.323 7.79572 119.181 8.20572V17.3466H122.644V10.3132C122.841 10.2416 123.09 10.2057 123.358 10.2057C123.768 10.2057 124.233 10.2774 124.519 10.4382L125.143 7.61739ZM51.5771 17.3461L50.2562 13.5086C49.9537 12.6336 49.4896 11.8836 48.7929 11.4552V11.4194C49.7387 10.9552 50.7929 10.0086 50.7929 8.34858C50.7929 5.67108 49.0254 4.19025 45.5612 4.19025C43.9554 4.19025 42.4379 4.43941 41.2954 4.90275V17.3461H44.7946V12.5619H45.3471C46.0262 12.5619 46.4546 13.0269 46.6504 13.6327L47.8471 17.3461H51.5771ZM47.2944 8.56394C47.2944 9.50977 46.8302 10.0806 45.7585 10.0806H44.7952V6.9206C45.0094 6.86727 45.3477 6.84894 45.651 6.84894C46.8302 6.84894 47.2944 7.4031 47.2944 8.56394ZM61.1454 12.5266C61.1454 9.63489 59.4329 7.49239 56.487 7.49239C53.5404 7.49239 51.827 9.63489 51.827 12.5266C51.827 15.4191 53.5404 17.5791 56.487 17.5791C59.4329 17.5791 61.1454 15.4191 61.1454 12.5266ZM57.682 12.4915C57.682 14.0982 57.2545 14.8115 56.487 14.8115C55.7187 14.8115 55.2903 14.0982 55.2903 12.4915C55.2903 10.884 55.7187 10.1699 56.487 10.1699C57.2545 10.1699 57.682 10.884 57.682 12.4915ZM69.4665 16.9182L68.4132 14.3657C68.1457 14.5799 67.7349 14.6866 67.289 14.6866C66.3615 14.6866 65.8082 13.7407 65.8082 12.4916C65.8082 11.2407 66.2899 10.2949 67.289 10.2949C67.7349 10.2949 68.1457 10.4024 68.4132 10.6174L69.4665 8.15322C68.8065 7.72405 68.039 7.49239 66.7174 7.49239C64.254 7.49239 62.219 9.22405 62.219 12.5266C62.219 15.8299 64.254 17.5791 66.7174 17.5791C68.039 17.5791 68.8065 17.3466 69.4665 16.9182ZM80.3375 17.3463H76.5167L74.0884 12.598H74.0525V17.3463H70.6259V3.33301H74.0525V11.7413H74.0884L76.2142 7.72384H80.0875L77.57 12.1688L80.3375 17.3463ZM89.5313 12.1516C89.5313 9.47405 88.0313 7.49239 85.068 7.49239C82.0688 7.49239 80.3196 9.58155 80.3196 12.5266C80.3196 15.2757 81.9446 17.5791 85.443 17.5791C86.9605 17.5791 88.4771 17.2932 89.4063 16.8649L88.4771 14.3124C87.728 14.6691 86.6921 14.9016 85.7288 14.9016C84.7646 14.9016 83.9796 14.5799 83.7113 13.8841L89.4955 13.1516C89.5313 12.8124 89.5313 12.4916 89.5313 12.1516ZM86.1936 11.4554L83.4628 11.7771C83.4803 10.4021 84.1761 9.91959 84.9795 9.91959C85.747 9.91959 86.1936 10.4921 86.1936 11.4554ZM96.2788 17.1501V14.3118C96.0996 14.4009 95.7788 14.4893 95.5113 14.4893C95.0471 14.4893 94.7438 14.3468 94.7438 13.7934V10.2943H96.2788V7.72344H94.7438V4.84927L91.3513 5.76011V7.72344H90.3163V10.2943H91.3513V14.0434C91.3513 16.3468 92.1363 17.5251 94.2971 17.5251C95.083 17.5251 95.9038 17.3459 96.2788 17.1501ZM140.21 17.3466V10.7766C140.21 8.74155 138.942 7.49239 136.675 7.49239C135.211 7.49239 133.962 7.93905 133.336 8.31322C132.73 7.90322 131.801 7.49239 130.195 7.49239C128.659 7.49239 127.285 7.81405 126.249 8.20572V17.3466H129.713V10.3307C129.909 10.2416 130.123 10.2057 130.445 10.2057C131.158 10.2057 131.498 10.5816 131.498 11.1874V17.3466H134.961V10.3307C135.157 10.2416 135.408 10.2057 135.693 10.2057C136.407 10.2057 136.746 10.5816 136.746 11.1874V17.3466H140.21Z" fill="#1A5B35"/>
<mask id="mask0" style="mask-type:alpha" maskUnits="userSpaceOnUse" x="145" y="5" width="76" height="13">
<path fill-rule="evenodd" clip-rule="evenodd" d="M145.834 5.8335H220.001V17.5002H145.834V5.8335Z" fill="white"/>
</mask>
<g mask="url(#mask0)">
<path fill-rule="evenodd" clip-rule="evenodd" d="M209.329 15.5337L210.131 14.3411C210.915 14.9489 211.73 15.4137 212.575 15.7376C213.422 16.0578 214.26 16.2186 215.09 16.2186C216.114 16.2186 216.945 16.0022 217.583 15.5649C218.224 15.1283 218.542 14.5672 218.542 13.8823C218.542 13.3375 218.312 12.8921 217.853 12.54C217.395 12.1879 216.761 11.9789 215.953 11.9107C215.757 11.8899 215.476 11.8677 215.109 11.8514C213.288 11.7217 212.048 11.509 211.384 11.2051C210.871 10.953 210.476 10.6343 210.209 10.24C209.942 9.84567 209.809 9.40539 209.809 8.91249C209.809 8.01859 210.206 7.28182 211.004 6.69997C211.799 6.12257 212.832 5.8335 214.103 5.8335C215.028 5.8335 215.939 5.98396 216.84 6.29082C217.741 6.59694 218.597 7.05057 219.405 7.65021L218.603 8.80575C217.918 8.25207 217.202 7.83551 216.449 7.55385C215.696 7.27441 214.922 7.13358 214.128 7.13358C213.291 7.13358 212.603 7.29813 212.059 7.62575C211.517 7.95188 211.247 8.36103 211.247 8.85541C211.247 9.04813 211.292 9.22602 211.377 9.38835C211.463 9.54993 211.601 9.70558 211.778 9.84567C212.233 10.1866 213.217 10.4068 214.73 10.4994C215.426 10.5402 215.967 10.5832 216.346 10.6314C217.469 10.7566 218.36 11.1176 219.017 11.718C219.672 12.3161 220.001 13.0492 220.001 13.9231C220.001 14.9637 219.552 15.8191 218.651 16.4906C217.751 17.1629 216.569 17.5002 215.109 17.5002C214.007 17.5002 212.98 17.3371 212.034 17.0169C211.086 16.693 210.186 16.2023 209.329 15.5337ZM202.206 17.5002C200.545 17.5002 199.175 16.948 198.097 15.8502C197.018 14.7525 196.477 13.3598 196.477 11.6698C196.477 9.97539 197.018 8.57968 198.103 7.47973C199.185 6.38347 200.552 5.8335 202.206 5.8335C203.864 5.8335 205.237 6.38347 206.329 7.48714C207.419 8.58858 207.964 9.9828 207.964 11.6698C207.964 13.3598 207.419 14.7525 206.333 15.8502C205.248 16.948 203.871 17.5002 202.206 17.5002ZM202.208 16.1983C203.452 16.1983 204.483 15.7706 205.301 14.919C206.116 14.0636 206.524 12.98 206.524 11.6695C206.524 10.3546 206.116 9.26651 205.305 8.41411C204.493 7.56098 203.459 7.1333 202.208 7.1333C200.966 7.1333 199.935 7.56469 199.116 8.42004C198.3 9.27688 197.893 10.362 197.893 11.6695C197.893 12.98 198.3 14.0636 199.116 14.919C199.935 15.7706 200.966 16.1983 202.208 16.1983ZM192.633 17.2089H194.031V6.0188H192.633V17.2089ZM184.378 6.08057C186.121 6.08057 187.526 6.59719 188.591 7.6334C189.656 8.66888 190.19 10.0149 190.19 11.6775C190.19 13.3496 189.666 14.692 188.618 15.7008C187.567 16.7081 186.156 17.2099 184.378 17.2099H179.629V6.08057H184.378ZM184.378 7.36105H181.004V15.9302H184.378C185.741 15.9302 186.816 15.5448 187.597 14.7784C188.382 14.006 188.772 12.9654 188.772 11.6549C188.772 10.3644 188.375 9.32526 187.577 8.54254C186.782 7.7539 185.713 7.36105 184.378 7.36105ZM168.818 6.08057V13.2866C168.818 14.4399 169.034 15.216 169.465 15.6103C169.897 16.0024 170.742 16.1988 172.009 16.1988C173.273 16.1988 174.12 16.0024 174.547 15.6103C174.975 15.216 175.188 14.4399 175.188 13.2866V6.08057H176.564V13.6587C176.564 15.0285 176.212 16.0121 175.503 16.608C174.794 17.2039 173.626 17.5004 172.004 17.5004C170.379 17.5004 169.212 17.2039 168.503 16.608C167.795 16.0121 167.441 15.0285 167.441 13.6587V6.08057H168.818ZM161.09 17.2099H162.467V7.36138H167.131V6.08057H156.426V7.36138H161.09V17.2099ZM145.834 15.5339L146.637 14.3413C147.421 14.9491 148.235 15.4138 149.08 15.7377C149.927 16.0579 150.766 16.2188 151.596 16.2188C152.619 16.2188 153.451 16.0023 154.089 15.565C154.729 15.1284 155.048 14.5673 155.048 13.8825C155.048 13.3377 154.818 12.8922 154.359 12.5401C153.9 12.1881 153.267 11.979 152.458 11.9108C152.262 11.8901 151.983 11.8679 151.616 11.8515C149.794 11.7218 148.554 11.5091 147.889 11.2052C147.376 10.9532 146.983 10.6345 146.715 10.2402C146.448 9.84583 146.314 9.40555 146.314 8.91264C146.314 8.01874 146.711 7.28198 147.51 6.70012C148.304 6.12272 149.338 5.83365 150.609 5.83365C151.534 5.83365 152.444 5.98411 153.345 6.29098C154.246 6.5971 155.102 7.05072 155.91 7.65036L155.108 8.80591C154.424 8.25222 153.708 7.83566 152.954 7.554C152.201 7.27456 151.428 7.13373 150.633 7.13373C149.797 7.13373 149.108 7.29828 148.564 7.6259C148.023 7.95203 147.752 8.36118 147.752 8.85557C147.752 9.04828 147.798 9.22617 147.883 9.3885C147.969 9.55008 148.106 9.70574 148.284 9.84583C148.739 10.1868 149.722 10.4069 151.236 10.4996C151.931 10.5403 152.472 10.5833 152.852 10.6315C153.975 10.7568 154.866 11.1177 155.524 11.7181C156.178 12.3163 156.506 13.0493 156.506 13.9232C156.506 14.9639 156.058 15.8192 155.156 16.4908C154.255 17.1631 153.075 17.5003 151.616 17.5003C150.512 17.5003 149.485 17.3372 148.541 17.017C147.592 16.6931 146.691 16.2025 145.834 15.5339Z" fill="#1A5B35"/>
</g>
</svg>
